<?xml version="1.0" encoding="UTF-8"?>
<svg width="172px" height="104px" viewBox="0 0 172 104" version="1.1" xmlns="http://www.w3.org/2000/svg" xmlns:xlink="http://www.w3.org/1999/xlink">
    <!-- Generator: Sketch 41.2 (35397) - http://www.bohemiancoding.com/sketch -->
    <title>Stroke 3</title>
    <desc>Created with Sketch.</desc>
    <defs>
        <path d="M1132.09327,272.771313 C1128.4272,266.419643 1121.85915,262.627349 1114.52475,262.627349 L1092.68947,262.627349 L1080.97788,282.913024 L1106.02505,282.913024 L1106.02505,282.916405 C1108.74897,282.916405 1110.9556,285.123035 1110.9556,287.84695 C1110.9556,288.669647 1110.73358,289.433741 1110.37408,290.114438 L1083.48992,336.752331 C1082.62215,338.159931 1081.08945,339.111104 1079.31558,339.111104 C1077.48649,339.111104 1075.90871,338.104709 1075.05784,336.624982 L1075.03868,336.624982 L1048.22666,290.184311 L1048.17031,290.184311 L1038.04212,272.642837 C1034.37492,266.291167 1027.808,262.5 1020.47473,262.5 L1020.47473,262.5 C1013.14146,262.5 1006.57341,266.291167 1002.90621,272.642837 L967.657593,333.694829 C963.990393,340.045372 963.990393,347.628833 967.657593,353.980504 C971.324792,360.331047 977.891715,364.123341 985.226114,364.123341 L1021.44168,364.123341 L1033.1544,343.837666 L993.52859,343.837666 C990.910611,343.719333 988.818932,341.576941 988.818932,338.928533 C988.818932,338.067519 989.060106,337.269616 989.447788,336.565252 L989.41736,336.565252 L1016.15388,290.184311 L1016.18656,290.184311 C1017.03856,288.705711 1018.61633,287.698189 1020.44543,287.698189 C1022.27339,287.698189 1023.85229,288.705711 1024.70316,290.184311 L1024.74599,290.184311 L1043.87538,323.316452 L1043.90243,323.267992 L1061.70761,354.10898 L1061.70874,354.110106 C1065.37594,360.46065 1071.94399,364.251817 1079.27839,364.251817 C1086.61166,364.251817 1093.17859,360.459523 1096.84466,354.10898 L1132.09214,293.056988 C1135.75934,286.705318 1135.76047,279.122983 1132.09327,272.771313 Z" id="path-1"></path>
        <filter x="-50%" y="-50%" width="200%" height="200%" filterUnits="objectBoundingBox" id="filter-2">
            <feOffset dx="1" dy="1" in="SourceAlpha" result="shadowOffsetOuter1"></feOffset>
            <feComposite in="shadowOffsetOuter1" in2="SourceAlpha" operator="out" result="shadowOffsetOuter1"></feComposite>
            <feColorMatrix values="0 0 0 0 1   0 0 0 0 1   0 0 0 0 1  0 0 0 0.3 0" type="matrix" in="shadowOffsetOuter1"></feColorMatrix>
        </filter>
    </defs>
    <g id="Website" stroke="none" stroke-width="1" fill="none" fill-rule="evenodd">
        <g id="About" transform="translate(-614.000000, -191.000000)">
            <g id="BG" transform="translate(-350.000000, -71.000000)">
                <g id="Bitmap">
                    <g id="Stroke-3">
                        <use fill="black" fill-opacity="1" filter="url(#filter-2)" xlink:href="#path-1"></use>
                        <use fill-opacity="0.41" fill="#000000" fill-rule="evenodd" xlink:href="#path-1"></use>
                    </g>
                </g>
            </g>
        </g>
    </g>
</svg>