<?xml version="1.0" encoding="UTF-8"?>
<svg width="32px" height="32px" viewBox="0 0 32 32" version="1.1" xmlns="http://www.w3.org/2000/svg" xmlns:xlink="http://www.w3.org/1999/xlink">
    <!-- Generator: Sketch 41.2 (35397) - http://www.bohemiancoding.com/sketch -->
    <title>home-feature-2</title>
    <desc>Created with Sketch.</desc>
    <defs></defs>
    <g id="Website" stroke="none" stroke-width="1" fill="none" fill-rule="evenodd">
        <g id="Home" transform="translate(-1015.000000, -1161.000000)">
            <g id="home-feature-2" transform="translate(1015.000000, 1161.000000)">
                <g id="Group">
                    <path d="M7.7104,13.8154667 C6.68106667,13.8154667 5.84373333,14.6528 5.84373333,15.6821333 C5.84373333,16.7114667 6.68106667,17.5488 7.7104,17.5488 C8.73973333,17.5488 9.57706667,16.7114667 9.57706667,15.6821333 C9.57706667,14.6528 8.73973333,13.8154667 7.7104,13.8154667 Z M7.7104,16.4821333 C7.26933333,16.4821333 6.9104,16.1232 6.9104,15.6821333 C6.9104,15.2410667 7.26933333,14.8821333 7.7104,14.8821333 C8.15146667,14.8821333 8.5104,15.2410667 8.5104,15.6821333 C8.5104,16.1232 8.15146667,16.4821333 7.7104,16.4821333 Z" id="Shape" fill="#1AAB51"></path>
                    <ellipse id="Oval-2" fill="#D1EEDC" cx="17" cy="6" rx="4" ry="4"></ellipse>
                    <path d="M31.9813333,17.5488 C31.9813333,16.7301333 31.6698667,15.9845333 31.1621333,15.4181333 C31.2112,14.8010667 31.1109333,14.1744 30.8528,13.5968 C30.7322667,13.3274667 30.416,13.2064 30.1482667,13.328 C29.8794667,13.4485333 29.7589333,13.7637333 29.8794667,14.0325333 C29.9637333,14.2213333 30.0213333,14.4176 30.0597333,14.6170667 C29.6677333,14.4458667 29.2362667,14.3493333 28.7818667,14.3493333 C28.7504,14.3493333 28.7232,14.3621333 28.6928,14.3674667 C28.6330667,14.3632 28.576,14.3493333 28.5152,14.3493333 C28.384,14.3493333 28.2581333,14.3674667 28.1328,14.3877333 C27.1333333,12.0122667 25.4074667,10.0816 23.0997333,8.75893333 C23.3232,8.08853333 23.4437333,7.38346667 23.4437333,6.6672 C23.4437333,2.99093333 20.4533333,0.000533333333 16.7770667,0.000533333333 C13.1008,0.000533333333 10.1104,2.99093333 10.1104,6.6672 C10.1104,7.16853333 10.168,7.6608 10.2752,8.13706667 C9.79946667,8.2928 9.37706667,8.44266667 9.0432,8.5744 C6.70453333,7.64053333 5.18186667,7.31893333 3.82026667,7.4704 C3.49653333,7.50613333 3.24213333,7.7456 3.1872,8.0656 C3.13173333,8.38986667 3.29493333,8.704 3.59253333,8.84693333 C4.3168,9.19573333 4.62506667,10.0405333 4.95146667,10.9354667 C5.03306667,11.16 5.11733333,11.3893333 5.20853333,11.6138667 C3.8176,13.0538667 3.56053333,14.2208 3.31146667,15.9493333 L2.63946667,15.9493333 C0.973866667,15.9493333 0.0186666667,17.1344 0.0186666667,19.2005333 L0.0186666667,21.1242667 C0.0186666667,23.2272 0.9984,24.4826667 2.63946667,24.4826667 L2.96853333,24.4826667 C3.35893333,25.4704 3.9392,26.3722667 4.66773333,27.1834667 L3.9312,29.0245333 C3.66346667,29.6938667 3.74453333,30.4501333 4.1488,31.0469333 C4.55306667,31.6437333 5.22506667,32 5.94613333,32 L9.5408,32 C9.9952,32 10.3978667,31.7274667 10.5674667,31.3050667 L10.7632,30.816 C12.4650667,31.3152 14.3568,31.584 16.3728,31.584 C18.0229333,31.584 19.5642667,31.3744 20.968,30.9824 L20.9701333,30.9904 C21.152,31.5941333 21.6976,32 22.3285333,32 L25.5376,32 C26.3024,32 26.9941333,31.6421333 27.4362667,31.0176 C27.8784,30.3930667 27.9856,29.6218667 27.7306667,28.9002667 L27.1061333,27.1301333 C28.5189333,25.3861333 29.3157333,23.2117333 29.3157333,20.7482667 C29.3157333,20.7322667 29.3141333,20.7162667 29.3141333,20.7002667 C30.8250667,20.4464 31.9813333,19.1317333 31.9813333,17.5488 Z M28.7104,18.0624 L28.6202667,18.0693333 C28.5898667,18.0714667 28.56,18.0752 28.5152,18.0821333 C27.7802667,18.0821333 27.1818667,17.4837333 27.1818667,16.7488 C27.1818667,16.6656 27.192,16.5850667 27.2064,16.5061333 C27.2106667,16.4837333 27.2165333,16.4618667 27.2213333,16.44 C27.2352,16.3808 27.2533333,16.3237333 27.2746667,16.2677333 C27.2821333,16.2485333 27.2890667,16.2288 27.2976,16.2096 C27.3610667,16.0672 27.4485333,15.9381333 27.5552,15.8266667 C27.5738667,15.8074667 27.5941333,15.7893333 27.6144,15.7712 C27.6490667,15.7392 27.6853333,15.7093333 27.7232,15.6810667 C27.752,15.6597333 27.7813333,15.6389333 27.8117333,15.6197333 C27.8426667,15.6005333 27.8757333,15.584 27.9082667,15.5674667 C27.9450667,15.5488 27.9808,15.5285333 28.0197333,15.5125333 L28.0245333,15.5104 C28.1765333,15.4501333 28.3413333,15.4144 28.5141333,15.4144 C29.2490667,15.4144 29.8474667,16.0128 29.8474667,16.7477333 C29.848,17.4170667 29.3525333,17.9664 28.7104,18.0624 Z M16.7770667,1.06666667 C19.8650667,1.06666667 22.3770667,3.57866667 22.3770667,6.66666667 C22.3770667,7.33653333 22.256,7.98346667 22.0330667,8.59093333 L21.9504,8.79093333 C21.6858667,9.4304 21.3024,10.0213333 20.8325333,10.5184 C20.7664,10.4874667 20.6970667,10.4677333 20.6304,10.4384 C20.4741333,10.3706667 20.3162667,10.3093333 20.1568,10.2512 C20.0192,10.2010667 19.8826667,10.1498667 19.7434667,10.1066667 C19.5925333,10.0608 19.44,10.0250667 19.2874667,9.98773333 C19.0096,9.91946667 18.7301333,9.86613333 18.4485333,9.82666667 C18.3152,9.808 18.1818667,9.78453333 18.048,9.77226667 C17.8816,9.7568 17.7152,9.7536 17.5477333,9.74826667 C17.4112,9.744 17.2752,9.73973333 17.1386667,9.74186667 C16.9786667,9.74453333 16.8192,9.75306667 16.6597333,9.7648 C16.5082667,9.776 16.3578667,9.79253333 16.2069333,9.81173333 C16.0629333,9.8304 15.9194667,9.84746667 15.7765333,9.8736 C15.5722667,9.9104 15.3701333,9.95946667 15.168,10.0112 C15.08,10.0341333 14.9904,10.0501333 14.9029333,10.0757333 C14.6096,10.1616 14.3205333,10.2661333 14.0362667,10.3850667 C13.9712,10.4122667 13.9082667,10.4453333 13.8437333,10.4741333 C13.6154667,10.576 13.3904,10.6874667 13.1701333,10.8112 C13.1386667,10.8288 13.1056,10.8410667 13.0746667,10.8592 C12.8970667,10.7024 12.7317333,10.5333333 12.5765333,10.3562667 C12.5552,10.3322667 12.5365333,10.3066667 12.5157333,10.2826667 C12.3765333,10.1184 12.2453333,9.94773333 12.1258667,9.76853333 C12.1168,9.75466667 12.1077333,9.74133333 12.0986667,9.72746667 C11.8346667,9.32266667 11.6208,8.8832 11.4661333,8.41546667 L11.408,8.2368 C11.2608,7.73333333 11.1776,7.20693333 11.1776,6.66613333 C11.1770667,3.57866667 13.6890667,1.06666667 16.7770667,1.06666667 Z M9.5408,30.9333333 L5.94613333,30.9333333 C5.57386667,30.9333333 5.24106667,30.7562667 5.03253333,30.4485333 C4.824,30.1408 4.78346667,29.7653333 4.9216,29.4202667 L5.48693333,28.0064 C6.6448,29.0362667 8.0832,29.8741333 9.73493333,30.4784 L9.5408,30.9333333 Z M26.5648,30.4016 C26.3258667,30.7397333 25.9514667,30.9333333 25.5370667,30.9333333 L22.328,30.9333333 C22.1717333,30.9333333 22.0368,30.8330667 21.992,30.6832 L21.9834667,30.6554667 C23.6746667,30.0448 25.1306667,29.1504 26.2890667,28.0229333 L26.7242667,29.2554667 C26.8624,29.6458667 26.8042667,30.0634667 26.5648,30.4016 Z M25.6858667,27.0997333 C25.6816,27.104 25.6773333,27.1093333 25.6730667,27.1136 C25.4576,27.3322667 25.2272,27.5392 24.9877333,27.7392 C24.9296,27.7877333 24.8688,27.8336 24.8090667,27.8810667 C24.6314667,28.0224 24.4474667,28.1578667 24.2581333,28.2890667 C24.176,28.3461333 24.0944,28.4042667 24.0101333,28.4592 C23.7696,28.616 23.5210667,28.7664 23.2629333,28.9066667 C23.1754667,28.9541333 23.0837333,28.9968 22.9946667,29.0421333 C22.8005333,29.1413333 22.6026667,29.2368 22.4,29.3264 C22.2896,29.3749333 22.1792,29.4229333 22.0666667,29.4688 C21.8256,29.5669333 21.5786667,29.6592 21.3264,29.744 C21.2704,29.7626667 21.2170667,29.7850667 21.1605333,29.8032 L21.1381333,29.8101333 C19.7066667,30.2682667 18.1050667,30.5162667 16.3728,30.5162667 C14.176,30.5162667 12.1221333,30.1610667 10.3226667,29.5242667 C10.2165333,29.4869333 10.1098667,29.4506667 10.0058667,29.4117333 C6.9616,28.2586667 4.70293333,26.2709333 3.84426667,23.7744 L3.72053333,23.4144 L2.63946667,23.4144 C1.35466667,23.4144 1.08533333,22.1685333 1.08533333,21.1226667 L1.08533333,19.2 C1.08533333,17.0154667 2.25493333,17.0154667 2.63946667,17.0154667 L4.23946667,17.0154667 L4.30346667,16.5557333 C4.58293333,14.5573333 4.7232,13.5541333 6.21386667,12.1173333 L6.4896,11.8517333 L6.3264,11.5056 C6.19146667,11.2192 6.07626667,10.904 5.95413333,10.5696 C5.69813333,9.8672 5.41813333,9.09973333 4.89333333,8.51733333 C5.90933333,8.59466667 7.136,8.94933333 8.8432,9.64266667 L9.04693333,9.72533333 L9.2496,9.64053333 C9.57653333,9.504 10.0538667,9.33173333 10.6,9.15253333 C10.7061333,9.416 10.8298667,9.67093333 10.9690667,9.9184 C10.9797333,9.9376 10.9909333,9.9568 11.0016,9.97653333 C11.1274667,10.1952 11.2661333,10.4064 11.4170667,10.6101333 C11.4437333,10.6469333 11.4693333,10.6842667 11.4970667,10.72 C11.6384,10.9029333 11.7909333,11.0773333 11.952,11.2464 C11.9914667,11.288 12.0272,11.3317333 12.0672,11.3722667 C12.1008,11.4058667 12.1344,11.4389333 12.1685333,11.4714667 C11.8794667,11.6933333 11.5978667,11.9285333 11.3333333,12.1925333 C11.1248,12.4010667 11.1248,12.7381333 11.3333333,12.9466667 C11.5418667,13.1552 11.8789333,13.1552 12.0874667,12.9466667 C12.4357333,12.5984 12.8112,12.2944 13.2058667,12.0314667 L13.2912,11.9765333 C13.4538667,11.8714667 13.6197333,11.7744 13.7882667,11.6832 C13.8565333,11.6464 13.9258667,11.6128 13.9946667,11.5781333 C14.1290667,11.5109333 14.2645333,11.448 14.4016,11.3893333 C14.456,11.3664 14.5093333,11.3418667 14.5642667,11.32 C14.7578667,11.2432 14.9541333,11.1744 15.152,11.1146667 C15.1850667,11.1045333 15.2186667,11.0965333 15.2517333,11.0869333 C15.4453333,11.032 15.64,10.9834667 15.8368,10.9445333 C15.8554667,10.9408 15.8741333,10.9365333 15.8928,10.9328 C17.2682667,10.6709333 18.7045333,10.8037333 20.0181333,11.3306667 C20.0309333,11.336 20.0437333,11.3408 20.0565333,11.3461333 C20.9328,11.7034667 21.7541333,12.2368 22.4645333,12.9466667 C22.5685333,13.0506667 22.7050667,13.1029333 22.8416,13.1029333 C22.9781333,13.1029333 23.1146667,13.0506667 23.2186667,12.9466667 C23.4272,12.7381333 23.4272,12.4010667 23.2186667,12.1925333 C22.7770667,11.7509333 22.2954667,11.3738667 21.7893333,11.0512 C21.8325333,11.0016 21.8693333,10.9477333 21.9109333,10.8970667 C21.9834667,10.8085333 22.056,10.72 22.1242667,10.6272 C22.1909333,10.5370667 22.2538667,10.4448 22.3162667,10.3514667 C22.3674667,10.2746667 22.4165333,10.1973333 22.4645333,10.1184 C22.5274667,10.0149333 22.5882667,9.91093333 22.6453333,9.8048 C22.6576,9.78186667 22.6725333,9.76 22.6842667,9.73706667 C24.7264,10.9370667 26.2581333,12.6634667 27.1514667,14.7754667 C27.0416,14.8506667 26.9418667,14.9376 26.8469333,15.0288 C26.8298667,15.0453333 26.8128,15.0618667 26.7962667,15.0789333 C26.5952,15.2848 26.4341333,15.5237333 26.3189333,15.7872 C26.312,15.8026667 26.3045333,15.8170667 26.2981333,15.8325333 C26.2448,15.9616 26.2032,16.096 26.1728,16.2346667 C26.1674667,16.2597333 26.1632,16.2853333 26.1589333,16.3109333 C26.1328,16.4538667 26.1146667,16.5989333 26.1146667,16.7482667 C26.1146667,16.9072 26.1317333,17.0613333 26.1616,17.2117333 C26.1717333,17.2624 26.1898667,17.3093333 26.2032,17.3584 C26.2288,17.4554667 26.2549333,17.5525333 26.2922667,17.6448 C26.3146667,17.7002667 26.3445333,17.7514667 26.3706667,17.8048 C26.4101333,17.8848 26.4501333,17.9642667 26.4981333,18.0389333 C26.5322667,18.0917333 26.5712,18.1402667 26.6090667,18.1898667 C26.6608,18.2576 26.7125333,18.3242667 26.7712,18.3861333 C26.8149333,18.4325333 26.8618667,18.4752 26.9093333,18.5184 C26.9712,18.5749333 27.0352,18.6282667 27.1029333,18.6778667 C27.1552,18.7162667 27.2085333,18.7514667 27.2634667,18.7856 C27.3349333,18.8298667 27.4085333,18.8693333 27.4848,18.9056 C27.5434667,18.9338667 27.6021333,18.9605333 27.6629333,18.9834667 C27.7434667,19.0144 27.8261333,19.0384 27.9104,19.0602667 C27.9733333,19.0768 28.0352,19.0938667 28.1002667,19.1050667 C28.1264,19.1098667 28.1509333,19.1194667 28.1776,19.1232 C28.2250667,19.6597333 28.2490667,20.2042667 28.2490667,20.7466667 C28.248,23.2597333 27.3168,25.44 25.6858667,27.0997333 Z M29.2816,19.6165333 C29.2704,19.4186667 29.2485333,19.2234667 29.2314667,19.0272 C30.0794667,18.7594667 30.7232,18.0416 30.8746667,17.1488 C30.8992,17.2784 30.9152,17.4117333 30.9152,17.5488 C30.9146667,18.552 30.216,19.3904 29.2816,19.6165333 Z" id="Shape" fill="#1AAB51"></path>
                    <path d="M14.0432,9.96906667 C14.1408,10.0442667 14.2554667,10.0805333 14.3696,10.0805333 C14.5285333,10.0805333 14.6864,10.0096 14.7914667,9.87413333 C14.9717333,9.64106667 14.9296,9.30613333 14.6965333,9.12586667 C13.8554667,8.47413333 13.3728,7.49333333 13.3728,6.43626667 C13.3728,4.55893333 14.8997333,3.032 16.7770667,3.032 C18.6544,3.032 20.1813333,4.55893333 20.1813333,6.43626667 C20.1813333,7.392 19.792,8.27893333 19.0848,8.9328 C18.8688,9.1328 18.8554667,9.46986667 19.0554667,9.6864 C19.2554667,9.9024 19.5925333,9.91573333 19.8090667,9.71573333 C20.7232,8.8704 21.2474667,7.67466667 21.2474667,6.43626667 C21.2474667,3.9712 19.2416,1.96533333 16.7765333,1.96533333 C14.3114667,1.96533333 12.3056,3.9712 12.3056,6.43626667 C12.3061333,7.8256 12.9392,9.1136 14.0432,9.96906667 Z" id="Shape" fill="#1AAB51"></path>
                    <path d="M16.9978667,28.2688 C14.5754667,28.4784 12.5648,28.1589333 10.4768,27.2346667 C10.2069333,27.1157333 9.89226667,27.2368 9.77333333,27.5066667 C9.65386667,27.776 9.776,28.0912 10.0453333,28.2101333 C11.8512,29.0096 13.6618667,29.3952 15.6522667,29.3952 C16.1205333,29.3952 16.5994667,29.3738667 17.0901333,29.3312 C17.3834667,29.3061333 17.6010667,29.0474667 17.5754667,28.7541333 C17.5498667,28.4608 17.2901333,28.2373333 16.9978667,28.2688 Z" id="Shape" fill="#1AAB51"></path>
                </g>
            </g>
        </g>
    </g>
</svg>