<?xml version="1.0" encoding="UTF-8"?>
<svg width="32px" height="32px" viewBox="0 0 32 32" version="1.1" xmlns="http://www.w3.org/2000/svg" xmlns:xlink="http://www.w3.org/1999/xlink">
    <!-- Generator: Sketch 41.2 (35397) - http://www.bohemiancoding.com/sketch -->
    <title>home-feature-1</title>
    <desc>Created with Sketch.</desc>
    <defs></defs>
    <g id="Website" stroke="none" stroke-width="1" fill="none" fill-rule="evenodd">
        <g id="Home" transform="translate(-718.000000, -1161.000000)" fill="#1AAB51">
            <g id="home-feature-1" transform="translate(718.000000, 1161.000000)">
                <ellipse id="Oval" fill-opacity="0.2" cx="16" cy="16" rx="11" ry="11"></ellipse>
                <path d="M0.523102041,16.8548571 C0.811102041,16.8548571 1.04620408,16.6197551 1.04620408,16.3317551 C1.04620408,8.26514286 7.60685714,1.7044898 15.6734694,1.7044898 C18.9792653,1.7044898 22.1400816,2.80881633 24.7118367,4.83657143 L21.9441633,4.83657143 C21.6555102,4.83657143 21.4210612,5.07167347 21.4210612,5.35967347 C21.4210612,5.64832653 21.6555102,5.88277551 21.9441633,5.88277551 L26.0793469,5.88277551 C26.112,5.88538776 26.1453061,5.88538776 26.1786122,5.88277551 L26.645551,5.88277551 L26.645551,1.18138776 C26.645551,0.892734694 26.410449,0.658285714 26.122449,0.658285714 C25.834449,0.658285714 25.5993469,0.892734694 25.5993469,1.18138776 L25.5993469,4.21681633 C22.8009796,1.91608163 19.3214694,0.658285714 15.6734694,0.658285714 C7.03085714,0.658285714 0,7.68914286 0,16.3317551 C0,16.6197551 0.23444898,16.8548571 0.523102041,16.8548571 Z" id="Fill-1"></path>
                <path d="M15.6734694,4.83657143 C9.33681633,4.83657143 4.17828571,9.99510204 4.17828571,16.3317551 C4.17828571,22.6684082 9.33681633,27.8269388 15.6734694,27.8269388 C22.0101224,27.8269388 27.1686531,22.6684082 27.1686531,16.3317551 C27.1686531,9.99510204 22.0101224,4.83657143 15.6734694,4.83657143 Z M15.6734694,26.7807347 C9.91085714,26.7807347 5.2244898,22.0943673 5.2244898,16.3317551 C5.2244898,10.5691429 9.91085714,5.88277551 15.6734694,5.88277551 C21.4360816,5.88277551 26.122449,10.5691429 26.122449,16.3317551 C26.122449,22.0943673 21.4360816,26.7807347 15.6734694,26.7807347 Z" id="Fill-2"></path>
                <path d="M15.6734694,8.49502041 C15.9614694,8.49502041 16.1965714,8.26057143 16.1965714,7.97191837 L16.1965714,6.92897959 C16.1965714,6.63771429 15.9614694,6.40587755 15.6734694,6.40587755 C15.3854694,6.40587755 15.1503673,6.63771429 15.1503673,6.92897959 L15.1503673,7.97191837 C15.1503673,8.26057143 15.3854694,8.49502041 15.6734694,8.49502041 Z" id="Fill-3"></path>
                <path d="M15.6734694,24.1684898 C15.3854694,24.1684898 15.1503673,24.4029388 15.1503673,24.6915918 L15.1503673,25.7345306 C15.1503673,26.0257959 15.3854694,26.2576327 15.6734694,26.2576327 C15.9614694,26.2576327 16.1965714,26.0257959 16.1965714,25.7345306 L16.1965714,24.6915918 C16.1965714,24.4029388 15.9614694,24.1684898 15.6734694,24.1684898 Z" id="Fill-4"></path>
                <path d="M24.0333061,16.8548571 L25.0762449,16.8548571 C25.364898,16.8548571 25.5993469,16.6197551 25.5993469,16.3317551 C25.5993469,16.0437551 25.364898,15.8086531 25.0762449,15.8086531 L24.0333061,15.8086531 C23.7446531,15.8086531 23.5102041,16.0437551 23.5102041,16.3317551 C23.5102041,16.6197551 23.7446531,16.8548571 24.0333061,16.8548571 Z" id="Fill-5"></path>
                <path d="M7.31363265,15.8086531 L6.27069388,15.8086531 C5.98204082,15.8086531 5.74759184,16.0437551 5.74759184,16.3317551 C5.74759184,16.6197551 5.98204082,16.8548571 6.27069388,16.8548571 L7.31363265,16.8548571 C7.60228571,16.8548571 7.83673469,16.6197551 7.83673469,16.3317551 C7.83673469,16.0437551 7.60228571,15.8086531 7.31363265,15.8086531 Z" id="Fill-6"></path>
                <path d="M16.1965714,13.7933061 L16.1965714,11.1072653 C16.1965714,10.8192653 15.9614694,10.5841633 15.6734694,10.5841633 C15.3854694,10.5841633 15.1503673,10.8192653 15.1503673,11.1072653 L15.1503673,13.7933061 C14.2524082,14.0284082 13.5843265,14.836898 13.5843265,15.8086531 C13.5843265,16.1965714 13.6966531,16.5537959 13.8801633,16.8646531 L9.5562449,21.1866122 C9.35183673,21.3903673 9.35183673,21.7221224 9.5562449,21.9258776 C9.65812245,22.0284082 9.79330612,22.0793469 9.92587755,22.0793469 C10.0610612,22.0793469 10.1936327,22.0284082 10.2961633,21.9258776 L14.6200816,17.6019592 C14.9283265,17.7861224 15.285551,17.8977959 15.6734694,17.8977959 C16.8267755,17.8977959 17.7626122,16.9619592 17.7626122,15.8086531 C17.7626122,14.836898 17.0945306,14.0284082 16.1965714,13.7933061 Z M15.6734694,16.8548571 C15.0968163,16.8548571 14.6272653,16.3853061 14.6272653,15.8086531 C14.6272653,15.232 15.0968163,14.7657143 15.6734694,14.7657143 C16.2501224,14.7657143 16.7196735,15.232 16.7196735,15.8086531 C16.7196735,16.3853061 16.2501224,16.8548571 15.6734694,16.8548571 Z" id="Fill-7"></path>
                <path d="M6.21191837,28.171102 C6.03820408,28.4003265 6.08653061,28.7294694 6.32163265,28.9005714 C6.41044898,28.9697959 6.52016327,28.9998367 6.62987755,28.9998367 C6.79053061,28.9998367 6.94922449,28.9338776 7.05371429,28.7908571 C7.21959184,28.5616327 7.17322449,28.2324898 6.944,28.0613878 C6.7115102,27.8876735 6.38497959,27.9366531 6.21191837,28.171102 Z" id="Fill-8"></path>
                <path d="M3.77795918,24.832 C3.60946939,24.6021224 3.28032653,24.5433469 3.04587755,24.7118367 C2.81142857,24.885551 2.75787755,25.2094694 2.92571429,25.4439184 C3.03085714,25.5843265 3.18628571,25.6633469 3.35477551,25.6633469 C3.45926531,25.6633469 3.5637551,25.6300408 3.65844898,25.5640816 C3.89289796,25.3955918 3.94383673,25.066449 3.77795918,24.832 Z" id="Fill-9"></path>
                <path d="M3.9797551,25.9722449 C3.76555102,26.1635918 3.74465306,26.4927347 3.93861224,26.7069388 C4.03853061,26.826449 4.1835102,26.8852245 4.3317551,26.8852245 C4.45126531,26.8852245 4.57665306,26.8447347 4.67591837,26.7552653 C4.89012245,26.5613061 4.91102041,26.2321633 4.71706122,26.0179592 C4.53093878,25.7985306 4.20179592,25.7835102 3.9797551,25.9722449 Z" id="Fill-10"></path>
                <path d="M5.77828571,27.0942041 C5.56865306,26.900898 5.23493878,26.9159184 5.04097959,27.124898 C4.84179592,27.339102 4.85942857,27.6682449 5.07428571,27.8674286 C5.17355102,27.956898 5.29828571,28.0026122 5.42367347,28.0026122 C5.56408163,28.0026122 5.70383673,27.946449 5.80897959,27.8367347 C6.00228571,27.6225306 5.9924898,27.2933878 5.77828571,27.0994286 L5.77828571,27.0942041 Z" id="Fill-11"></path>
                <path d="M2.96163265,23.5611429 L2.95640816,23.5611429 C2.816,23.3110204 2.49730612,23.2222041 2.24718367,23.3697959 C1.99510204,23.5102041 1.9082449,23.828898 2.05387755,24.0790204 C2.14791837,24.2475102 2.3242449,24.3422041 2.5077551,24.3422041 C2.592,24.3422041 2.68604082,24.3186939 2.76244898,24.2729796 C3.01518367,24.1325714 3.10465306,23.8138776 2.96163265,23.5611429 Z" id="Fill-12"></path>
                <path d="M30.7931429,17.4386939 L30.8140408,17.4386939 C31.0968163,17.4386939 31.3266939,17.2146939 31.3364898,16.939102 C31.3469388,16.6452245 31.1222857,16.4029388 30.8342857,16.3957551 C30.5482449,16.3826939 30.3007347,16.6099592 30.2909388,16.8953469 C30.2804898,17.184 30.5051429,17.428898 30.7931429,17.4386939 Z" id="Fill-13"></path>
                <path d="M0.658285714,18.4156735 C0.946285714,18.3856327 1.15591837,18.1276735 1.12261224,17.8416327 C1.09191837,17.5536327 0.836571429,17.3446531 0.548571429,17.3753469 C0.259918367,17.4034286 0.0509387755,17.6633469 0.084244898,17.9467755 C0.109714286,18.2171429 0.339591837,18.4156735 0.602122449,18.4156735 L0.658285714,18.4156735 Z" id="Fill-14"></path>
                <path d="M0.951510204,19.9516735 C1.23232653,19.8955102 1.41583673,19.6173061 1.35183673,19.3371429 C1.29567347,19.0537143 1.01812245,18.8702041 0.737306122,18.933551 C0.453877551,18.9897143 0.270367347,19.2679184 0.334367347,19.5513469 C0.382693878,19.7962449 0.602122449,19.9621224 0.841795918,19.9621224 C0.877714286,19.9621224 0.912979592,19.9621224 0.951510204,19.9516735 Z" id="Fill-15"></path>
                <path d="M2.27787755,22.2093061 C2.16293878,21.9493878 1.85469388,21.8266122 1.58955102,21.9441633 C1.32636735,22.059102 1.20685714,22.3647347 1.32114286,22.6324898 C1.41061224,22.8238367 1.59934694,22.9466122 1.8037551,22.9466122 C1.86971429,22.9466122 1.94416327,22.9309388 2.01012245,22.8982857 C2.27265306,22.7833469 2.39281633,22.474449 2.27787755,22.2093061 Z" id="Fill-16"></path>
                <path d="M1.7397551,20.7986939 C1.6555102,20.5204898 1.35706122,20.3702857 1.08669388,20.459102 C0.808489796,20.5485714 0.658285714,20.8391837 0.747755102,21.1173878 C0.818938776,21.3368163 1.02269388,21.4772245 1.24212245,21.4772245 C1.29567347,21.4772245 1.35183673,21.472 1.40538776,21.4569796 C1.6757551,21.3675102 1.82922449,21.0690612 1.7397551,20.7986939 Z" id="Fill-17"></path>
                <path d="M15.3900408,30.954449 C15.1046531,30.9492245 14.8649796,31.178449 14.8597551,31.467102 C14.8519184,31.7603265 15.0844082,31.9947755 15.3697959,32 L15.3802449,32 C15.6682449,32 15.8981224,31.7753469 15.9033469,31.4873469 C15.9079184,31.2019592 15.6786939,30.9590204 15.3900408,30.954449 Z" id="Fill-18"></path>
                <path d="M27.2346122,25.2858776 C27.0589388,25.5105306 27.0994286,25.8416327 27.3240816,26.0179592 C27.4233469,26.0917551 27.5330612,26.1276735 27.648,26.1276735 C27.7982041,26.1276735 27.956898,26.059102 28.0613878,25.9232653 C28.2370612,25.6992653 28.1965714,25.3701224 27.9666939,25.1911837 C27.7374694,25.0155102 27.413551,25.056 27.2346122,25.2858776 Z" id="Fill-19"></path>
                <path d="M23.9438367,28.3905306 C23.7093878,28.5511837 23.6453878,28.8803265 23.8138776,29.1147755 C23.9105306,29.2630204 24.0737959,29.3420408 24.2422857,29.3420408 C24.3441633,29.3420408 24.4440816,29.3139592 24.5381224,29.2525714 C24.7732245,29.0893061 24.8365714,28.7601633 24.6680816,28.5257143 C24.5074286,28.2860408 24.1835102,28.2272653 23.9438367,28.3905306 Z" id="Fill-20"></path>
                <path d="M25.1454694,27.4697143 C24.9260408,27.658449 24.9005714,27.9875918 25.0866939,28.2070204 C25.1911837,28.3265306 25.3394286,28.3905306 25.4844082,28.3905306 C25.6045714,28.3905306 25.7247347,28.3467755 25.824,28.2651429 C26.0434286,28.0764082 26.0715102,27.7472653 25.8827755,27.5284898 C25.6940408,27.3090612 25.364898,27.2835918 25.1454694,27.4697143 Z" id="Fill-21"></path>
                <path d="M28.8189388,23.8752653 C28.5714286,23.7244082 28.2475102,23.8008163 28.0966531,24.0437551 C27.946449,24.2886531 28.0176327,24.6125714 28.2625306,24.7627755 C28.352,24.8163265 28.4466939,24.8417959 28.5407347,24.8417959 C28.714449,24.8417959 28.884898,24.757551 28.9848163,24.596898 C29.1376327,24.352 29.0638367,24.0254694 28.8189388,23.8752653 Z" id="Fill-22"></path>
                <path d="M26.2471837,26.4313469 C26.0434286,26.6377143 26.0538776,26.9694694 26.2628571,27.1686531 C26.3621224,27.2653061 26.4920816,27.3136327 26.6253061,27.3136327 C26.7604898,27.3136327 26.9002449,27.2600816 27.0001633,27.1503673 C27.1986939,26.9413878 27.1941224,26.6122449 26.9844898,26.4130612 C26.7755102,26.2171429 26.4463673,26.2223673 26.2471837,26.4313469 Z" id="Fill-23"></path>
                <path d="M30.7448163,17.9565714 C30.464,17.9160816 30.1962449,18.1172245 30.1557551,18.4006531 C30.112,18.6886531 30.3111837,18.9492245 30.5991837,18.9897143 C30.6253061,18.9949388 30.6507755,18.9949388 30.6736327,18.9949388 C30.9283265,18.9949388 31.1529796,18.8088163 31.188898,18.548898 C31.232,18.2654694 31.0334694,17.9977143 30.7448163,17.9565714 Z" id="Fill-24"></path>
                <path d="M30.4999184,19.5023673 C30.219102,19.4337959 29.9363265,19.6075102 29.8625306,19.882449 C29.7959184,20.1658776 29.9670204,20.4493061 30.2445714,20.5204898 C30.2857143,20.533551 30.3288163,20.5355102 30.3699592,20.5355102 C30.6044082,20.5355102 30.8186122,20.3748571 30.8773878,20.1404082 C30.9492245,19.8569796 30.7781224,19.5768163 30.4999184,19.5023673 Z" id="Fill-25"></path>
                <path d="M8.20179592,28.9005714 C7.95167347,28.7549388 7.63297959,28.8346122 7.48734694,29.0840816 C7.33387755,29.3315918 7.41812245,29.6555102 7.66302041,29.8011429 C7.74726531,29.8520816 7.84195918,29.8749388 7.93142857,29.8749388 C8.10710204,29.8749388 8.28081633,29.7861224 8.38008163,29.6176327 C8.53028571,29.3727347 8.44930612,29.0533878 8.20179592,28.9005714 Z" id="Fill-26"></path>
                <path d="M30.0917551,21.0181224 C29.8213878,20.9182041 29.5177143,21.0586122 29.4236735,21.3315918 C29.3237551,21.6045714 29.4589388,21.9004082 29.7319184,22.0003265 C29.7880816,22.0205714 29.8520816,22.0329796 29.9108571,22.0329796 C30.1250612,22.0329796 30.3268571,21.9004082 30.4006531,21.6862041 C30.4999184,21.4132245 30.3647347,21.1173878 30.0917551,21.0181224 Z" id="Fill-27"></path>
                <path d="M29.5281633,22.4796735 C29.2728163,22.357551 28.9541224,22.4594286 28.8293878,22.7219592 C28.704,22.9825306 28.8137143,23.296 29.0690612,23.4207347 C29.1428571,23.4566531 29.2192653,23.4742857 29.2982857,23.4742857 C29.4922449,23.4742857 29.6809796,23.3652245 29.770449,23.1810612 C29.8951837,22.9185306 29.7906939,22.6070204 29.5281633,22.4796735 Z" id="Fill-28"></path>
                <path d="M13.8827755,30.8493061 C13.5941224,30.8140408 13.3394286,31.0177959 13.300898,31.306449 C13.2649796,31.5918367 13.4693878,31.8550204 13.7547755,31.8850612 L13.7547755,31.8902857 L13.8187755,31.8902857 C14.0793469,31.8902857 14.3033469,31.6963265 14.3366531,31.4311837 C14.3725714,31.1431837 14.1681633,30.8878367 13.8827755,30.8493061 Z" id="Fill-29"></path>
                <path d="M10.9413878,30.176 C10.6684082,30.0819592 10.3699592,30.2243265 10.2752653,30.4999184 C10.1838367,30.772898 10.3288163,31.0687347 10.5991837,31.1634286 C10.6579592,31.178449 10.7141224,31.1915102 10.772898,31.1915102 C10.987102,31.1915102 11.1915102,31.0537143 11.2626939,30.8395102 C11.3573878,30.5639184 11.2117551,30.2654694 10.9413878,30.176 Z" id="Fill-30"></path>
                <path d="M12.3931429,30.5893878 C12.1097143,30.5253878 11.8341224,30.699102 11.765551,30.9825306 C11.7041633,31.2626939 11.8798367,31.5461224 12.1580408,31.6075102 C12.1991837,31.6173061 12.234449,31.6173061 12.2782041,31.6173061 C12.5126531,31.6173061 12.7320816,31.4566531 12.7830204,31.2169796 C12.8522449,30.933551 12.6733061,30.6533878 12.3931429,30.5893878 Z" id="Fill-31"></path>
                <path d="M9.54057143,29.6124082 C9.27281633,29.4876735 8.96457143,29.6019592 8.84440816,29.8625306 C8.7242449,30.1250612 8.83395918,30.4391837 9.09714286,30.5560816 C9.16832653,30.5893878 9.24212245,30.6044082 9.31657143,30.6044082 C9.5124898,30.6044082 9.70122449,30.4946939 9.79069388,30.3013878 C9.91085714,30.0408163 9.80114286,29.7325714 9.54057143,29.6124082 Z" id="Fill-32"></path>
                <path d="M18.4006531,30.7043265 C18.1172245,30.7578776 17.931102,31.0334694 17.9820408,31.3162449 C18.0303673,31.5663673 18.2550204,31.7400816 18.4999184,31.7400816 C18.5306122,31.7400816 18.5639184,31.7400816 18.5946122,31.7348571 C18.8747755,31.6760816 19.0635102,31.403102 19.0125714,31.1222857 C18.9590204,30.8342857 18.6834286,30.6533878 18.4006531,30.7043265 Z" id="Fill-33"></path>
                <path d="M19.8700408,30.3497143 C19.5918367,30.4261224 19.4364082,30.7193469 19.5180408,30.997551 C19.5866122,31.2222041 19.7955918,31.3671837 20.0202449,31.3671837 C20.0666122,31.3671837 20.1201633,31.3626122 20.171102,31.3469388 C20.4486531,31.2626939 20.6047347,30.9694694 20.523102,30.6938776 C20.4388571,30.420898 20.1456327,30.2654694 19.8700408,30.3497143 Z" id="Fill-34"></path>
                <path d="M21.2956735,29.8370612 C21.0279184,29.9467755 20.9031837,30.2550204 21.012898,30.5227755 C21.0971429,30.7193469 21.291102,30.8395102 21.4922449,30.8395102 C21.5614694,30.8395102 21.6300408,30.8290612 21.6966531,30.8035918 C21.9644082,30.6886531 22.0891429,30.3856327 21.9794286,30.1198367 C21.8644898,29.8520816 21.5614694,29.7273469 21.2956735,29.8370612 Z" id="Fill-35"></path>
                <path d="M16.9005714,30.9080816 C16.6125714,30.933551 16.3977143,31.1836735 16.4257959,31.4723265 C16.4466939,31.7453061 16.6759184,31.9516735 16.948898,31.9516735 L16.9900408,31.9516735 L16.9900408,31.946449 C17.2780408,31.9262041 17.4896327,31.6760816 17.4641633,31.3880816 C17.4439184,31.1020408 17.1885714,30.8878367 16.9005714,30.9080816 Z" id="Fill-36"></path>
                <path d="M22.6579592,29.184 C22.4032653,29.3191837 22.3085714,29.6378776 22.4489796,29.8906122 C22.5436735,30.0662857 22.7219592,30.1662041 22.9080816,30.1662041 C22.9923265,30.1662041 23.0765714,30.1453061 23.1555918,30.0969796 C23.4109388,29.9617959 23.5049796,29.643102 23.3619592,29.3929796 C23.2267755,29.1376327 22.9080816,29.0435918 22.6579592,29.184 Z" id="Fill-37"></path>
            </g>
        </g>
    </g>
</svg>