<?xml version="1.0" encoding="UTF-8"?>
<svg width="65px" height="51px" viewBox="0 0 65 51" version="1.1" xmlns="http://www.w3.org/2000/svg" xmlns:xlink="http://www.w3.org/1999/xlink">
    <!-- Generator: Sketch 41.2 (35397) - http://www.bohemiancoding.com/sketch -->
    <title>“</title>
    <desc>Created with Sketch.</desc>
    <defs></defs>
    <g id="Website" stroke="none" stroke-width="1" fill="none" fill-rule="evenodd">
        <g id="Home" transform="translate(-513.000000, -2688.000000)" fill="#5CD68A">
            <g id="Testimonials" transform="translate(169.000000, 2234.000000)">
                <g id="Group-9" transform="translate(0.000000, 94.000000)">
                    <path d="M373.22256,399.09227 C373.22256,402.131221 371.993639,404.790264 369.535759,407.069478 C367.07788,409.348692 364.17858,410.488281 360.837773,410.488281 C355.587933,410.488281 351.555162,408.755155 348.739339,405.288851 C345.923515,401.822547 344.515625,397.026773 344.515625,390.901387 C344.515625,385.203352 346.937674,379.457921 351.781844,373.664919 C356.626015,367.871918 362.460408,363.479749 369.2852,360.488281 L372.435088,365.545261 C367.042071,368.15686 362.818399,371.195766 359.763947,374.66207 C356.709495,378.128375 354.943666,382.330612 354.466408,387.268908 L358.475357,387.268908 C361.434357,387.268908 363.844475,387.601288 365.705782,388.266059 C367.567088,388.93083 369.070429,389.856746 370.215849,391.043837 C371.313542,392.183444 372.089075,393.441741 372.542471,394.818766 C372.995866,396.195791 373.22256,397.620278 373.22256,399.09227 Z M408.515625,399.09227 C408.515625,402.131221 407.286704,404.790264 404.828824,407.069478 C402.370945,409.348692 399.471645,410.488281 396.130838,410.488281 C390.880998,410.488281 386.848227,408.755155 384.032404,405.288851 C381.21658,401.822547 379.80869,397.026773 379.80869,390.901387 C379.80869,385.203352 382.230739,379.457921 387.074909,373.664919 C391.919079,367.871918 397.753473,363.479749 404.578265,360.488281 L407.728153,365.545261 C402.335136,368.15686 398.111464,371.195766 395.057012,374.66207 C392.00256,378.128375 390.236731,382.330612 389.759473,387.268908 L393.768421,387.268908 C396.727422,387.268908 399.13754,387.601288 400.998846,388.266059 C402.860153,388.93083 404.363494,389.856746 405.508914,391.043837 C406.606607,392.183444 407.38214,393.441741 407.835536,394.818766 C408.288931,396.195791 408.515625,397.620278 408.515625,399.09227 Z" id="“" transform="translate(376.515625, 385.488281) scale(-1, 1) translate(-376.515625, -385.488281) "></path>
                </g>
            </g>
        </g>
    </g>
</svg>